<?xml version="1.0" standalone="no"?><!DOCTYPE svg PUBLIC "-//W3C//DTD SVG 1.1//EN" "http://www.w3.org/Graphics/SVG/1.1/DTD/svg11.dtd"><svg t="1523775147533" class="icon" style="" viewBox="0 0 1024 1024" version="1.1" xmlns="http://www.w3.org/2000/svg" p-id="2339" xmlns:xlink="http://www.w3.org/1999/xlink" width="200" height="200"><defs><style type="text/css"></style></defs><path d="M800 992H224a96.109 96.109 0 0 1-96-96V512a96.109 96.109 0 0 1 96-96h576a96.109 96.109 0 0 1 96 96v384a96.109 96.109 0 0 1-96 96zM224 480a32.036 32.036 0 0 0-32 32v384a32.036 32.036 0 0 0 32 32h576a32.036 32.036 0 0 0 32-32V512a32.036 32.036 0 0 0-32-32z" p-id="2340" fill="#8a8a8a"></path><path d="M512 832a128 128 0 1 1 128-128 128.145 128.145 0 0 1-128 128z m0-192a64 64 0 1 0 64 64 64.073 64.073 0 0 0-64-64zM768 480a32 32 0 0 1-32-32V320a224 224 0 1 0-448 0v128a32 32 0 0 1-64 0V320a288 288 0 0 1 576 0v128a32 32 0 0 1-32 32z" p-id="2341" fill="#8a8a8a"></path></svg>